<?xml version="1.0" standalone="no"?>
<!DOCTYPE svg PUBLIC "-//W3C//DTD SVG 20010904//EN"
 "http://www.w3.org/TR/2001/REC-SVG-20010904/DTD/svg10.dtd">
<svg version="1.0" xmlns="http://www.w3.org/2000/svg"
 width="273.000000pt" height="273.000000pt" viewBox="0 0 273.000000 273.000000"
 preserveAspectRatio="xMidYMid meet">
<metadata>
Created by potrace 1.11, written by Peter Selinger 2001-2013
</metadata>
<g transform="translate(0.000000,273.000000) scale(0.100000,-0.100000)"
fill="#000000" stroke="none">
<path d="M1253 2664 c-18 -9 -180 -165 -360 -347 -180 -181 -347 -349 -371
-372 -23 -23 -39 -45 -35 -48 3 -4 46 -7 95 -7 l88 0 186 183 c103 100 205
201 227 224 22 23 44 40 50 36 6 -3 7 -2 4 3 -9 16 107 122 157 144 59 27 106
15 171 -41 14 -12 39 -18 85 -19 102 -2 130 -1 130 8 0 18 -222 228 -253 239
-46 17 -137 15 -174 -3z"/>
<path d="M1470 2242 l0 -108 -222 -223 -222 -224 56 -52 c40 -38 53 -56 47
-66 -14 -22 -10 -78 7 -114 23 -49 59 -69 119 -67 73 2 94 5 89 14 -3 4 -1 8
3 8 5 0 17 14 27 31 24 40 23 122 -1 158 -10 14 -16 30 -15 34 1 5 -2 6 -8 2
-6 -4 -16 -2 -23 3 -20 16 -94 24 -115 13 -16 -8 -25 -6 -46 10 -22 17 -24 23
-14 39 9 14 15 16 25 8 10 -8 12 -7 7 5 -4 10 20 40 76 94 45 43 86 77 91 75
5 -1 8 2 7 6 -4 11 35 55 109 125 l62 57 110 0 111 0 0 140 0 140 -140 0 -140
0 0 -108z m-161 -688 c12 -15 21 -33 21 -41 0 -19 -49 -63 -70 -63 -20 0 -62
34 -53 44 3 3 1 6 -5 6 -18 0 -14 25 9 54 13 17 30 26 49 26 19 0 36 -9 49
-26z"/>
<path d="M1820 2189 l0 -103 153 -148 152 -147 -102 -103 -103 -102 3 37 c2
21 -2 42 -8 47 -6 5 -83 8 -170 7 l-160 -2 0 -169 0 -168 137 1 136 2 55 -68
55 -68 5 -175 5 -175 201 -3 201 -2 0 210 0 210 -179 0 -179 0 -26 31 c-14 17
-26 34 -26 37 1 4 65 73 143 155 l142 148 91 -88 c51 -49 96 -97 102 -109 13
-25 14 -48 6 -207 -7 -133 -1 -151 39 -115 13 13 56 51 95 86 60 53 72 69 82
111 10 42 9 59 -4 105 -14 47 -51 107 -78 127 -43 31 -346 344 -341 352 4 6 1
7 -6 3 -8 -5 -81 60 -207 186 -107 106 -199 195 -204 196 -6 2 -10 -37 -10
-99z m282 -529 c-46 -48 -74 -70 -82 -65 -9 5 -11 4 -6 -3 8 -14 -63 -94 -76
-86 -5 3 -7 0 -6 -7 2 -6 -3 -14 -9 -16 -33 -12 -6 28 72 107 61 63 87 84 95
76 8 -8 9 -6 5 6 -8 21 52 85 67 70 5 -5 -17 -37 -60 -82z m134 29 c4 -7 -21
-39 -62 -78 -38 -37 -106 -106 -151 -153 -74 -78 -84 -85 -93 -68 -8 15 5 34
87 119 53 56 103 101 111 101 9 0 12 3 9 7 -9 8 63 83 80 83 6 0 15 -5 19 -11z"/>
<path d="M360 1563 l0 -248 200 3 200 2 28 -27 c15 -16 47 -53 70 -84 l42 -56
1 -327 0 -326 359 0 360 0 2 366 c2 201 0 368 -4 371 -5 2 -148 4 -319 3 -296
0 -312 0 -328 19 -9 10 -32 38 -51 62 l-35 43 -5 220 -5 221 -257 3 -258 2 0
-247z"/>
<path d="M155 1583 c-55 -57 -104 -114 -108 -126 -13 -34 -3 -137 17 -182 20
-43 748 -779 760 -768 3 4 6 45 6 93 l0 87 -202 207 c-401 409 -397 404 -398
474 0 18 11 55 25 82 21 42 25 63 25 145 0 70 -3 95 -12 94 -7 0 -58 -48 -113
-106z"/>
<path d="M1830 666 c-67 -69 -126 -130 -130 -137 -4 -6 -5 -29 -3 -50 l6 -39
-44 0 c-41 -1 -50 -6 -132 -85 -95 -90 -136 -115 -189 -115 -44 1 -68 15 -141
86 -101 97 -94 94 -195 99 -51 2 -92 1 -92 -4 0 -17 315 -323 352 -342 42 -21
94 -27 150 -16 40 8 110 75 417 395 85 89 159 158 164 155 6 -3 7 -1 3 5 -4 7
21 39 63 81 39 37 71 73 71 80 0 7 -29 11 -88 11 l-88 0 -124 -124z"/>
</g>
</svg>
