<?xml version="1.0" standalone="no"?>
<!DOCTYPE svg PUBLIC "-//W3C//DTD SVG 20010904//EN"
 "http://www.w3.org/TR/2001/REC-SVG-20010904/DTD/svg10.dtd">
<svg version="1.0" xmlns="http://www.w3.org/2000/svg"
 width="299.000000pt" height="299.000000pt" viewBox="0 0 299.000000 299.000000"
 preserveAspectRatio="xMidYMid meet">
<metadata>
Created by potrace 1.11, written by Peter Selinger 2001-2013
</metadata>
<g transform="translate(0.000000,299.000000) scale(0.100000,-0.100000)"
fill="#000000" stroke="none">
<path d="M1384 2744 c-37 -16 -93 -66 -224 -199 -96 -98 -261 -264 -366 -371
-106 -106 -189 -195 -186 -198 3 -3 44 -6 91 -6 l86 0 290 286 c160 157 302
291 316 299 46 25 126 24 155 -2 56 -51 107 -61 213 -45 l43 7 -106 105 c-120
118 -137 129 -211 139 -43 6 -62 3 -101 -15z"/>
<path d="M1595 2319 l-7 -112 -214 -214 c-118 -118 -214 -220 -214 -227 0 -7
21 -31 46 -55 42 -39 45 -45 40 -77 -10 -52 3 -102 36 -134 26 -26 37 -30 87
-30 31 0 69 6 84 13 52 24 75 123 43 185 -25 48 -57 62 -138 62 -62 0 -75 3
-86 20 -11 18 4 36 179 210 l191 190 114 0 114 0 0 140 0 140 -134 0 -133 0
-8 -111z m-170 -674 c21 -21 26 -31 20 -53 -17 -67 -78 -84 -115 -32 -24 34
-20 60 13 90 28 27 49 25 82 -5z"/>
<path d="M1946 2353 c-13 -13 -6 -181 8 -195 128 -123 286 -282 286 -287 0 -3
-46 -51 -101 -106 l-101 -100 5 43 5 42 -174 0 -175 0 2 -160 c2 -93 6 -163
12 -167 6 -3 67 -5 137 -4 l128 2 56 -66 c53 -62 56 -69 58 -123 1 -31 2 -66
3 -77 1 -11 3 -66 4 -122 l1 -103 200 0 200 0 0 210 0 210 -182 0 -183 0 -27
34 -28 35 149 152 149 153 101 -101 101 -100 0 -167 c0 -91 3 -166 6 -166 8 0
123 98 161 138 28 30 53 84 53 118 0 6 -7 35 -16 64 -17 58 -17 58 -654 684
-165 161 -174 169 -184 159z m344 -534 c0 -7 -26 -38 -57 -69 -32 -32 -89 -90
-127 -129 -38 -40 -71 -69 -74 -66 -13 12 24 60 124 164 99 103 134 129 134
100z m68 -58 c-1 -5 -69 -76 -149 -159 -111 -115 -149 -148 -157 -140 -7 7
-12 16 -12 22 0 5 48 58 108 118 59 60 109 113 110 118 2 6 9 10 15 10 7 0 18
9 25 20 12 19 67 30 60 11z"/>
<path d="M482 1643 l3 -248 213 -3 c116 -1 212 -6 212 -10 0 -4 10 -18 23 -32
12 -14 36 -43 52 -65 l30 -40 5 -330 5 -330 358 -3 357 -2 0 370 0 370 -318 0
c-290 0 -319 2 -332 18 -9 9 -31 37 -50 60 l-35 44 -5 221 -5 222 -258 3 -257
2 2 -247z"/>
<path d="M353 1740 c-15 -17 -61 -65 -101 -107 -82 -85 -92 -104 -92 -172 0
-96 24 -126 414 -513 198 -197 362 -358 365 -358 3 0 6 41 6 90 l0 91 -245
250 c-316 324 -302 309 -328 343 -34 44 -26 154 15 194 15 16 19 212 4 212 -5
0 -22 -14 -38 -30z"/>
<path d="M1947 739 c-123 -126 -127 -133 -127 -174 0 -47 -10 -56 -53 -48 -23
5 -39 -6 -104 -69 -175 -168 -217 -172 -362 -31 -49 48 -93 83 -105 84 -12 0
-49 2 -82 5 -42 4 -64 2 -69 -6 -12 -20 289 -315 353 -347 92 -45 161 -18 277
108 44 48 86 87 93 88 6 0 12 5 12 10 0 5 57 68 128 141 293 304 332 346 332
358 0 9 -23 12 -83 12 l-83 0 -127 -131z"/>
</g>
</svg>
